<svg width="20" height="20" viewBox="0 0 20 20" fill="none" xmlns="http://www.w3.org/2000/svg">
<path d="M16.4858 10.0671C16.3491 9.5788 16.195 9.06214 16.0233 8.5063C15.5149 7.10482 15.1715 5.6489 15 4.16797C15 3.94695 15.0877 3.73499 15.244 3.57871C15.4003 3.42243 15.6123 3.33464 15.8333 3.33464C16.0543 3.33464 16.2663 3.42243 16.4225 3.57871C16.5788 3.73499 16.6666 3.94695 16.6666 4.16797C16.6666 4.38898 16.7544 4.60094 16.9107 4.75722C17.067 4.9135 17.2789 5.0013 17.5 5.0013C17.721 5.0013 17.9329 4.9135 18.0892 4.75722C18.2455 4.60094 18.3333 4.38898 18.3333 4.16797C18.3333 3.50493 18.0699 2.86904 17.6011 2.4002C17.1322 1.93136 16.4963 1.66797 15.8333 1.66797C15.1702 1.66797 14.5344 1.93136 14.0655 2.4002C13.5967 2.86904 13.3333 3.50493 13.3333 4.16797C13.3539 4.8043 13.4431 5.43656 13.5991 6.0538L9.59912 9.16797L4.97579 5.83463H7.49995C7.72097 5.83463 7.93293 5.74684 8.08921 5.59056C8.24549 5.43428 8.33329 5.22232 8.33329 5.0013C8.33329 4.78029 8.24549 4.56833 8.08921 4.41205C7.93293 4.25577 7.72097 4.16797 7.49995 4.16797H4.97579C4.62959 4.16786 4.29223 4.27726 4.01198 4.48051C3.73173 4.68375 3.52294 4.97043 3.41549 5.29953C3.30804 5.62863 3.30743 5.98328 3.41376 6.31275C3.52009 6.64221 3.72789 6.9296 4.00745 7.1338L8.23329 10.2271L7.03495 11.1596C6.29061 10.4588 5.31271 10.0591 4.29059 10.0379C3.26847 10.0167 2.27484 10.3756 1.50209 11.0449C0.729336 11.7143 0.232427 12.6465 0.107573 13.6612C-0.0172808 14.6759 0.238802 15.7008 0.82624 16.5375C1.41368 17.3742 2.29068 17.9632 3.28745 18.1905C4.28422 18.4177 5.32984 18.267 6.22187 17.7675C7.1139 17.2681 7.78889 16.4554 8.11613 15.4868C8.44337 14.5183 8.3996 13.4628 7.99329 12.5246L14.0675 7.80047C14.185 8.19713 14.6733 9.78714 14.7808 10.153C13.7847 10.413 12.9204 11.0331 12.3548 11.8932C11.7892 12.7534 11.5625 13.7927 11.7185 14.8103C11.8745 15.8278 12.4021 16.7515 13.1994 17.4027C13.9967 18.054 15.0071 18.3866 16.0353 18.3363C17.0635 18.2861 18.0366 17.8565 18.7666 17.1306C19.4966 16.4047 19.9316 15.434 19.9876 14.4061C20.0436 13.3782 19.7167 12.3659 19.0699 11.565C18.4231 10.7641 17.5025 10.2313 16.4858 10.0696V10.0671ZM4.16662 16.668C3.67217 16.668 3.18882 16.5213 2.77769 16.2466C2.36657 15.9719 2.04614 15.5815 1.85692 15.1247C1.6677 14.6679 1.61819 14.1652 1.71466 13.6802C1.81112 13.1953 2.04922 12.7498 2.39885 12.4002C2.74848 12.0506 3.19394 11.8125 3.67889 11.716C4.16385 11.6195 4.66651 11.669 5.12333 11.8583C5.58014 12.0475 5.97059 12.3679 6.24529 12.779C6.52 13.1902 6.66662 13.6735 6.66662 14.168C6.66662 14.831 6.40323 15.4669 5.93439 15.9357C5.46555 16.4046 4.82966 16.668 4.16662 16.668ZM15.8333 16.668C15.3388 16.668 14.8555 16.5213 14.4444 16.2466C14.0332 15.9719 13.7128 15.5815 13.5236 15.1247C13.3344 14.6679 13.2849 14.1652 13.3813 13.6802C13.4778 13.1953 13.7159 12.7498 14.0655 12.4002C14.4151 12.0506 14.8606 11.8125 15.3456 11.716C15.8305 11.6195 16.3332 11.669 16.79 11.8583C17.2468 12.0475 17.6373 12.3679 17.912 12.779C18.1867 13.1902 18.3333 13.6735 18.3333 14.168C18.3333 14.831 18.0699 15.4669 17.6011 15.9357C17.1322 16.4046 16.4963 16.668 15.8333 16.668Z" fill="#3922C5"/>
</svg>
